<svg width="51" height="50" viewBox="0 0 51 50" fill="none" xmlns="http://www.w3.org/2000/svg">
<rect x="0.100586" width="50" height="50" rx="11.1111" fill="#E7E6F2"/>
<path d="M18.5294 23.1388C19.3063 23.1388 20.0513 22.8291 20.6006 22.2778C21.15 21.7265 21.4586 20.9788 21.4586 20.1991C21.4586 19.4195 21.15 18.6718 20.6006 18.1205C20.0513 17.5692 19.3063 17.2595 18.5294 17.2595H11.9389V23.1388H18.5294ZM19.994 26.0784H11.9389V31.9578H19.994C20.7709 31.9578 21.5159 31.648 22.0652 31.0967C22.6145 30.5455 22.9231 29.7977 22.9231 29.0181C22.9231 28.2385 22.6145 27.4907 22.0652 26.9394C21.5159 26.3882 20.7709 26.0784 19.994 26.0784ZM23.0154 23.9795C24.1131 24.642 24.9643 25.6472 25.4385 26.8414C25.9128 28.0356 25.9839 29.3528 25.6412 30.5914C25.2984 31.83 24.5605 32.9218 23.5406 33.6995C22.5207 34.4772 21.2749 34.898 19.994 34.8974H9.00977V14.3198H18.5294C19.6449 14.3197 20.7373 14.6392 21.678 15.2408C22.6188 15.8424 23.3688 16.7011 23.84 17.7158C24.3112 18.7305 24.4839 19.8592 24.3378 20.969C24.1917 22.0789 23.7329 23.1238 23.0154 23.981M30.246 15.7897H38.3011V17.9944H30.246V15.7897ZM41.2302 28.2832H30.246V28.6506C30.2456 29.5586 30.5499 30.4402 31.1098 31.1535C31.6697 31.8667 32.4525 32.37 33.3322 32.5822C34.2118 32.7944 35.1371 32.7032 35.9588 32.3233C36.7805 31.9434 37.4508 31.2968 37.8617 30.4879H40.9871C40.5409 32.1169 39.5215 33.5284 38.1177 34.4608C36.714 35.3933 35.0211 35.7835 33.3527 35.5593C31.6842 35.335 30.1533 34.5115 29.0435 33.2412C27.9337 31.971 27.3202 30.34 27.3168 28.6506V26.4459C27.3168 24.5942 28.0498 22.8184 29.3544 21.5091C30.659 20.1998 32.4285 19.4642 34.2735 19.4642C36.1185 19.4642 37.888 20.1998 39.1926 21.5091C40.4973 22.8184 41.2302 24.5942 41.2302 26.4459V28.2832ZM38.1488 25.3435C37.909 24.4976 37.4009 23.7533 36.7016 23.2232C36.0023 22.6932 35.1498 22.4065 34.2735 22.4065C33.3972 22.4065 32.5448 22.6932 31.8455 23.2232C31.1461 23.7533 30.6381 24.4976 30.3983 25.3435H38.1488Z" fill="#333333"/>
</svg>
