<svg width="20" height="20" viewBox="0 0 20 20" fill="none" xmlns="http://www.w3.org/2000/svg">
<rect x="0.375" y="0.606445" width="19.2037" height="19.2037" rx="4.26748" fill="#E7E6F2"/>
<path d="M3.8125 5.41299C3.8125 5.01616 3.95186 4.68878 4.23057 4.43085C4.50929 4.17291 4.87163 4.04395 5.31757 4.04395C5.75555 4.04395 6.10991 4.17092 6.38067 4.4249C6.65938 4.6868 6.79875 5.02806 6.79875 5.44871C6.79875 5.82966 6.66337 6.14711 6.39262 6.40109C6.1139 6.66299 5.74759 6.79394 5.29368 6.79394H5.28173C4.84375 6.79394 4.48939 6.66299 4.21863 6.40109C3.94787 6.13918 3.8125 5.80981 3.8125 5.41299ZM3.96778 15.8297V7.87728H6.61957V15.8297H3.96778ZM8.0888 15.8297H10.7406V11.3892C10.7406 11.1114 10.7724 10.8971 10.8361 10.7463C10.9476 10.4765 11.1169 10.2483 11.3438 10.0618C11.5708 9.87529 11.8554 9.78204 12.1979 9.78204C13.0898 9.78204 13.5357 10.3812 13.5357 11.5797V15.8297H16.1875V11.2701C16.1875 10.0955 15.9088 9.20466 15.3514 8.59752C14.7939 7.99037 14.0573 7.6868 13.1415 7.6868C12.1143 7.6868 11.3139 8.12728 10.7406 9.00823V9.03204H10.7286L10.7406 9.00823V7.87728H8.0888C8.10473 8.13124 8.11269 8.92092 8.11269 10.2463C8.11269 11.5717 8.10473 13.4328 8.0888 15.8297Z" fill="#333333"/>
</svg>
