<svg width="51" height="50" viewBox="0 0 51 50" fill="none" xmlns="http://www.w3.org/2000/svg">
<rect x="0.930664" width="50" height="50" rx="11.1111" fill="#E7E6F2"/>
<path d="M9.88184 12.5147C9.88184 11.4815 10.2447 10.6291 10.9704 9.95757C11.696 9.28598 12.6395 8.9502 13.8005 8.9502C14.9409 8.9502 15.8635 9.2808 16.5685 9.94207C17.2942 10.624 17.657 11.5125 17.657 12.6077C17.657 13.5996 17.3046 14.4261 16.5996 15.0874C15.8739 15.7693 14.9202 16.1103 13.7383 16.1103H13.7072C12.5669 16.1103 11.6442 15.7693 10.9393 15.0874C10.2343 14.4055 9.88184 13.5479 9.88184 12.5147ZM10.2861 39.6363V18.9309H17.1905V39.6363H10.2861ZM21.0159 39.6363H27.9203V28.0748C27.9203 27.3515 28.0033 26.7936 28.1691 26.401C28.4594 25.6984 28.9 25.1043 29.4909 24.6187C30.0818 24.1331 30.823 23.8903 31.7146 23.8903C34.0368 23.8903 35.1979 25.4504 35.1979 28.5707V39.6363H42.1023V27.7648C42.1023 24.7065 41.3766 22.387 39.9252 20.8062C38.4738 19.2254 36.556 18.435 34.1716 18.435C31.4969 18.435 29.4131 19.5819 27.9203 21.8756V21.9376H27.8892L27.9203 21.8756V18.9309H21.0159C21.0574 19.5922 21.0781 21.6482 21.0781 25.0992C21.0781 28.55 21.0574 33.3958 21.0159 39.6363Z" fill="#333333"/>
</svg>
