<svg width="20" height="20" viewBox="0 0 20 20" fill="none" xmlns="http://www.w3.org/2000/svg">
<rect x="0.765625" y="0.606445" width="19.2037" height="19.2037" rx="4.26748" fill="#E7E6F2"/>
<path d="M7.84375 9.49357C8.14212 9.49357 8.42827 9.37462 8.63925 9.16288C8.85022 8.95115 8.96875 8.66397 8.96875 8.36453C8.96875 8.06509 8.85022 7.77791 8.63925 7.56618C8.42827 7.35444 8.14212 7.23549 7.84375 7.23549H5.3125V9.49357H7.84375ZM8.40625 10.6226H5.3125V12.8807H8.40625C8.70462 12.8807 8.99077 12.7617 9.20175 12.55C9.41272 12.3383 9.53125 12.0511 9.53125 11.7517C9.53125 11.4522 9.41272 11.165 9.20175 10.9533C8.99077 10.7416 8.70462 10.6226 8.40625 10.6226ZM9.56669 9.81648C9.9883 10.0709 10.3152 10.457 10.4973 10.9156C10.6795 11.3743 10.7068 11.8802 10.5752 12.3559C10.4435 12.8317 10.1601 13.251 9.76841 13.5497C9.37669 13.8483 8.89821 14.01 8.40625 14.0097H4.1875V6.10645H7.84375C8.27218 6.1064 8.69172 6.22913 9.05304 6.46018C9.41436 6.69123 9.70243 7.02101 9.8834 7.41074C10.0644 7.80048 10.1307 8.23396 10.0746 8.66023C10.0185 9.0865 9.84228 9.48783 9.56669 9.81704M12.3438 6.67097H15.4375V7.51775H12.3438V6.67097ZM16.5625 11.4694H12.3438V11.6105C12.3436 11.9593 12.4605 12.2979 12.6755 12.5718C12.8906 12.8457 13.1912 13.039 13.5291 13.1205C13.8669 13.202 14.2223 13.167 14.5379 13.0211C14.8535 12.8752 15.1109 12.6269 15.2688 12.3162H16.4691C16.2977 12.9418 15.9062 13.4839 15.3671 13.8421C14.828 14.2002 14.1778 14.3501 13.5369 14.264C12.8961 14.1778 12.3081 13.8615 11.8819 13.3736C11.4557 12.8858 11.2201 12.2594 11.2188 11.6105V10.7637C11.2188 10.0526 11.5003 9.37053 12.0013 8.86766C12.5024 8.36478 13.182 8.08227 13.8906 8.08227C14.5993 8.08227 15.2789 8.36478 15.7799 8.86766C16.281 9.37053 16.5625 10.0526 16.5625 10.7637V11.4694ZM15.379 10.3404C15.2869 10.0155 15.0918 9.72957 14.8232 9.52601C14.5546 9.32245 14.2272 9.21232 13.8906 9.21232C13.5541 9.21232 13.2267 9.32245 12.9581 9.52601C12.6895 9.72957 12.4943 10.0155 12.4023 10.3404H15.379Z" fill="#333333"/>
</svg>
