<svg width="51" height="50" viewBox="0 0 51 50" fill="none" xmlns="http://www.w3.org/2000/svg">
<rect x="0.443359" y="0.000976562" width="50" height="50" rx="11.1111" fill="#E7E6F2"/>
<g clip-path="url(#clip0_421_3564)">
<path d="M25.3803 11.6353C32.795 11.6353 38.8055 17.6457 38.8055 25.0604C38.8055 32.4752 32.795 38.4856 25.3803 38.4856C23.0952 38.489 20.8475 37.9066 18.8516 36.794L18.4421 36.5551L14.3716 37.7526C14.1501 37.8179 13.9156 37.8255 13.6903 37.7747C13.465 37.724 13.2564 37.6165 13.0843 37.4626C12.9122 37.3086 12.7823 37.1132 12.7068 36.895C12.6314 36.6767 12.6129 36.4428 12.6532 36.2154L12.6881 36.0691L13.8856 31.9986C12.6196 29.906 11.9518 27.5062 11.9551 25.0604C11.9551 17.6457 17.9655 11.6353 25.3803 11.6353ZM25.3803 14.3203C23.4573 14.3199 21.5695 14.8359 19.914 15.8143C18.2585 16.7926 16.896 18.1975 15.9689 19.8823C15.0418 21.567 14.584 23.4697 14.6433 25.3918C14.7026 27.3139 15.2769 29.1848 16.3062 30.8091C16.572 31.228 16.6861 31.7435 16.5962 32.255L16.5438 32.4738L15.9518 34.4889L17.9669 33.8969C18.5482 33.725 19.1523 33.8298 19.6316 34.1345C21.039 35.0257 22.6344 35.5772 24.2917 35.7456C25.949 35.9139 27.6227 35.6945 29.1805 35.1046C30.7384 34.5147 32.1377 33.5705 33.2678 32.3467C34.3979 31.1228 35.2278 29.6529 35.692 28.053C36.1562 26.4532 36.2418 24.7673 35.9422 23.1287C35.6426 21.4901 34.9659 19.9436 33.9657 18.6115C32.9654 17.2794 31.669 16.1982 30.179 15.4535C28.6889 14.7087 27.0461 14.3208 25.3803 14.3203ZM21.4897 18.5949C21.6383 18.5305 21.8011 18.5059 21.9621 18.5236C22.1231 18.5412 22.2768 18.6005 22.4079 18.6956C23.0846 19.1896 23.6216 19.8528 24.0834 20.4999L24.5224 21.1363L24.7278 21.4383C24.8463 21.6116 24.9045 21.8191 24.8933 22.0287C24.8822 22.2384 24.8023 22.4385 24.6661 22.5983L24.5654 22.7003L23.3249 23.6213C23.2652 23.6645 23.2232 23.7279 23.2066 23.7997C23.1901 23.8716 23.2001 23.9469 23.2349 24.0119C23.5169 24.5221 24.0149 25.2833 24.5868 25.8552C25.1601 26.4271 25.9562 26.9588 26.5013 27.2716C26.6194 27.3387 26.7617 27.3172 26.8584 27.2299L26.9094 27.1695L27.7163 25.9411C27.8644 25.7438 28.0831 25.6115 28.3267 25.5719C28.5702 25.5324 28.8196 25.5887 29.0225 25.729L29.7515 26.2378C30.4765 26.7547 31.1732 27.3105 31.725 28.0153C31.8276 28.1475 31.8928 28.3048 31.9139 28.4709C31.9349 28.6369 31.9109 28.8055 31.8445 28.9591C31.3129 30.1996 29.9663 31.2562 28.5674 31.2051L28.354 31.1917L28.0975 31.1675C28.0491 31.1618 28.0008 31.1555 27.9525 31.1488L27.633 31.0951C26.3925 30.8615 24.4043 30.158 22.3435 28.0986C20.2841 26.0378 19.5806 24.0495 19.347 22.809L19.2933 22.4895L19.2597 22.2103L19.2423 21.9753C19.2402 21.9418 19.2384 21.9082 19.2369 21.8746C19.1859 20.4731 20.2478 19.1265 21.4897 18.5949Z" fill="#333333"/>
</g>
<defs>
<clipPath id="clip0_421_3564">
<rect width="32.2204" height="32.2204" fill="white" transform="translate(9.26855 8.9502)"/>
</clipPath>
</defs>
</svg>
