<svg width="20" height="20" viewBox="0 0 20 20" fill="none" xmlns="http://www.w3.org/2000/svg">
<rect x="0.547852" y="0.606934" width="19.2037" height="19.2037" rx="4.26748" fill="#E7E6F2"/>
<g clip-path="url(#clip0_909_9351)">
<path d="M10.125 5.0752C12.9728 5.0752 15.2813 7.38365 15.2813 10.2314C15.2813 13.0792 12.9728 15.3877 10.125 15.3877C9.24739 15.389 8.38409 15.1653 7.61752 14.738L7.46025 14.6462L5.89688 15.1062C5.8118 15.1312 5.72173 15.1342 5.63521 15.1147C5.54868 15.0952 5.46857 15.0539 5.40247 14.9948C5.33636 14.9356 5.28645 14.8606 5.25748 14.7768C5.2285 14.6929 5.22141 14.6031 5.23688 14.5158L5.25029 14.4596L5.71022 12.8962C5.22397 12.0925 4.96751 11.1708 4.96875 10.2314C4.96875 7.38365 7.27721 5.0752 10.125 5.0752ZM10.125 6.10645C9.38644 6.10631 8.66138 6.30447 8.02555 6.68024C7.38972 7.05601 6.86644 7.59559 6.51035 8.24265C6.15426 8.88971 5.97843 9.6205 6.00122 10.3587C6.02401 11.0969 6.24458 11.8155 6.6399 12.4394C6.74199 12.6002 6.78582 12.7982 6.75127 12.9947L6.73116 13.0787L6.50377 13.8527L7.27772 13.6253C7.50099 13.5593 7.73302 13.5995 7.9171 13.7166C8.45764 14.0588 9.07039 14.2707 9.70691 14.3353C10.3434 14.4 10.9863 14.3157 11.5846 14.0891C12.1829 13.8626 12.7203 13.4999 13.1544 13.0299C13.5884 12.5598 13.9072 11.9953 14.0855 11.3808C14.2637 10.7664 14.2966 10.1189 14.1816 9.48952C14.0665 8.86016 13.8066 8.26619 13.4224 7.75458C13.0383 7.24296 12.5404 6.82772 11.9681 6.54167C11.3958 6.25563 10.7648 6.10663 10.125 6.10645ZM8.63072 7.7482C8.68781 7.72347 8.75035 7.71404 8.81219 7.72082C8.87403 7.7276 8.93304 7.75036 8.98341 7.78687C9.24329 7.97662 9.44954 8.23134 9.62691 8.47987L9.79552 8.72427L9.87441 8.84029C9.91993 8.90685 9.94227 8.98654 9.93798 9.06706C9.9337 9.14757 9.90302 9.22444 9.85069 9.28579L9.81202 9.32498L9.33558 9.6787C9.31265 9.6953 9.29652 9.71965 9.29016 9.74724C9.28381 9.77483 9.28767 9.80378 9.30104 9.82874C9.40932 10.0247 9.60061 10.317 9.82027 10.5367C10.0404 10.7564 10.3462 10.9605 10.5556 11.0807C10.6009 11.1065 10.6556 11.0982 10.6927 11.0647L10.7123 11.0415L11.0222 10.5697C11.0791 10.4939 11.1631 10.4431 11.2566 10.4279C11.3502 10.4127 11.446 10.4343 11.5239 10.4882L11.8039 10.6836C12.0823 10.8822 12.3499 11.0956 12.5618 11.3663C12.6013 11.4171 12.6263 11.4775 12.6344 11.5413C12.6424 11.6051 12.6333 11.6698 12.6077 11.7288C12.4036 12.2053 11.8864 12.6111 11.3491 12.5915L11.2671 12.5863L11.1686 12.577C11.15 12.5748 11.1315 12.5724 11.1129 12.5698L10.9902 12.5492C10.5138 12.4595 9.75014 12.1893 8.95866 11.3983C8.16769 10.6068 7.8975 9.84318 7.80779 9.36674L7.78716 9.24402L7.77427 9.13677L7.76757 9.04654C7.76675 9.03366 7.76606 9.02076 7.7655 9.00787C7.74591 8.46955 8.15377 7.95238 8.63072 7.7482Z" fill="#333333"/>
</g>
<defs>
<clipPath id="clip0_909_9351">
<rect width="12.375" height="12.375" fill="white" transform="translate(3.9375 4.04395)"/>
</clipPath>
</defs>
</svg>
